# xmcd
#
# Track frame offsets:
#	151
#	16550
#	32409
#	53777
#	72624
#	92978
#	109327
#	124738
#	144361
#	160602
#	178405
#	194083
#	210806
#	229897
#	249552
#	268138
#	284339
#	304664
#	320567
#
# Disc length: 4468 seconds
#
# Revision: 1
# Processed by: cddbd v1.5.1PL0 Copyright (c) Steve Scherf et al.
# Submitted via: audiograbber 1.83.01
#
DISCID=15117213
DTITLE=Various Artist - Love Radio. 106.6 fm. Vol 2.
DYEAR=1900
DGENRE=
TTITLE0=Dido. - Thank You.
TTITLE1=Andru Donalds. - Hurts To Be In Love.
TTITLE2=Seal. - This Could Be Heaven.
TTITLE3=Eros Ramazzotti feat. Cher. - Pio Che Puoi.
TTITLE4=Sade. - By Your Side.
TTITLE5=Orange Blue. - Shes Got That Light.
TTITLE6=Craig David. - Walking Away.
TTITLE7=Elton John. - Friends Never Say Goodbye.
TTITLE8=Enya. - Only Time.
TTITLE9=Aqua. - We Belong To The Sea.
TTITLE10=Brithney Spears. - Walk On By.
TTITLE11=Hooverphonic. - Mad About You.
TTITLE12=Ricky Martin and Christina Aguilera. - Nobody Wants To Be Lonely.
TTITLE13=Alizee. - Moi... Lolita.
TTITLE14=Robbie Williams. - Supreme.
TTITLE15=Leann Rimes. - Can't Fight The Moonlight.
TTITLE16=Melanie C. - If That Were Me. (Acoustic Version)
TTITLE17=Shivaree. - Bossa Nova.
TTITLE18=Westlife. - My Love.
EXTD=
EXTT0=
EXTT1=
EXTT2=
EXTT3=
EXTT4=
EXTT5=
EXTT6=
EXTT7=
EXTT8=
EXTT9=
EXTT10=
EXTT11=
EXTT12=
EXTT13=
EXTT14=
EXTT15=
EXTT16=
EXTT17=
EXTT18=
PLAYORDER=
